<?xml version="1.0" encoding="UTF-8"?>
<svg xmlns="http://www.w3.org/2000/svg" viewBox="0 0 500 500" width="1000" height="1000" role="img" aria-label="Cráneo estilizado">
  <defs>
    <linearGradient id="grad" x1="0" y1="0" x2="1" y2="1">
      <stop offset="0%" stop-color="#ffffff" />
      <stop offset="100%" stop-color="#d8d8d8" />
    </linearGradient>
    <filter id="soft" x="-20%" y="-20%" width="140%" height="140%">
      <feDropShadow dx="0" dy="6" stdDeviation="8" flood-opacity="0.15"/>
    </filter>
  </defs>

  <!-- Fondo transparente -->
  <rect width="100%" height="100%" fill="none"/>

  <!-- Cráneo principal -->
  <g transform="translate(50,30)" filter="url(#soft)">
    <path d="M200 20
             C130 20, 60 80, 60 150
             C60 230, 110 290, 140 310
             L140 340
             C140 360, 160 380, 180 380
             L260 380
             C280 380, 300 360, 300 340
             L300 310
             C330 290, 380 230, 380 150
             C380 80, 310 20, 240 20
             Z"
          fill="url(#grad)" stroke="#2b2b2b" stroke-width="6" />
    
    <!-- Ojales -->
    <ellipse cx="140" cy="170" rx="40" ry="52" fill="#0b0b0b" />
    <ellipse cx="260" cy="170" rx="40" ry="52" fill="#0b0b0b" />

    <!-- Nariz -->
    <path d="M200 210
             C190 230, 210 230, 200 210
             Z" fill="#0b0b0b" transform="translate(0,10) scale(1,1.2)" />

    <!-- Mejillas oscuras -->
    <ellipse cx="100" cy="230" rx="20" ry="30" fill="#cfcfcf" opacity="0.3" />
    <ellipse cx="300" cy="230" rx="20" ry="30" fill="#cfcfcf" opacity="0.3" />

    <!-- Dientes: fila superior -->
    <g transform="translate(140,260)">
      <rect x="-60" y="0" width="40" height="22" rx="6" ry="6" fill="#fff" stroke="#2b2b2b" stroke-width="3"/>
      <rect x="-18" y="0" width="36" height="22" rx="6" ry="6" fill="#fff" stroke="#2b2b2b" stroke-width="3"/>
      <rect x="24" y="0" width="36" height="22" rx="6" ry="6" fill="#fff" stroke="#2b2b2b" stroke-width="3"/>
    </g>

    <!-- Dientes: fila inferior (ligeramente separados) -->
    <g transform="translate(140,288)">
      <rect x="-44" y="0" width="30" height="16" rx="4" ry="4" fill="#fff" stroke="#2b2b2b" stroke-width="2"/>
      <rect x="-6" y="0" width="30" height="16" rx="4" ry="4" fill="#fff" stroke="#2b2b2b" stroke-width="2"/>
      <rect x="32" y="0" width="30" height="16" rx="4" ry="4" fill="#fff" stroke="#2b2b2b" stroke-width="2"/>
    </g>

    <!-- Grietas decorativas -->
    <path d="M200 40 C210 60, 230 70, 240 90" stroke="#b0b0b0" stroke-width="3" fill="none" stroke-linecap="round" />
    <path d="M120 80 C110 100, 100 120, 90 140" stroke="#b0b0b0" stroke-width="3" fill="none" stroke-linecap="round" />
  </g>
</svg>
